<svg width="50" height="50" viewBox="0 0 50 50" fill="none" xmlns="http://www.w3.org/2000/svg">
<path d="M11.625 11.6249C12.0645 11.186 12.6602 10.9395 13.2813 10.9395C13.9024 10.9395 14.4981 11.186 14.9375 11.6249L25 21.6874L35.0625 11.6249C35.349 11.3164 35.7134 11.0909 36.1173 10.9721C36.5212 10.8533 36.9496 10.8456 37.3575 10.9499C37.7654 11.0542 38.1376 11.2666 38.4349 11.5647C38.7322 11.8627 38.9437 12.2355 39.0469 12.6437C39.151 13.0511 39.1435 13.479 39.0253 13.8826C38.9071 14.2862 38.6825 14.6505 38.375 14.9374L28.3125 24.9999L38.375 35.0624C38.6835 35.3489 38.9091 35.7133 39.0279 36.1172C39.1467 36.5211 39.1543 36.9495 39.05 37.3574C38.9457 37.7653 38.7333 38.1375 38.4353 38.4348C38.1372 38.7321 37.7644 38.9436 37.3563 39.0468C36.9488 39.1509 36.5209 39.1434 36.1173 39.0252C35.7137 38.907 35.3494 38.6824 35.0625 38.3749L25 28.3124L14.9375 38.3749C14.4933 38.7894 13.9055 39.0152 13.298 39.0047C12.6905 38.9942 12.1109 38.7483 11.6813 38.3187C11.2517 37.889 11.0057 37.3094 10.9952 36.7019C10.9847 36.0944 11.2105 35.5066 11.625 35.0624L21.6875 24.9999L11.625 14.9374C11.1861 14.498 10.9396 13.9023 10.9396 13.2812C10.9396 12.6601 11.1861 12.0644 11.625 11.6249Z" fill="#333333"/>
</svg>
