<svg width="50" height="50" viewBox="0 0 50 50" fill="none" xmlns="http://www.w3.org/2000/svg">
<path d="M17.9688 23.4375C18.5904 23.4375 19.1865 23.6844 19.626 24.124C20.0656 24.5635 20.3125 25.1596 20.3125 25.7812V30.4688C20.3125 31.0904 20.0656 31.6865 19.626 32.126C19.1865 32.5656 18.5904 32.8125 17.9688 32.8125C17.3471 32.8125 16.751 32.5656 16.3115 32.126C15.8719 31.6865 15.625 31.0904 15.625 30.4688V25.7812C15.625 25.1596 15.8719 24.5635 16.3115 24.124C16.751 23.6844 17.3471 23.4375 17.9688 23.4375ZM34.375 25.7812C34.375 25.1596 34.1281 24.5635 33.6885 24.124C33.249 23.6844 32.6529 23.4375 32.0312 23.4375C31.4096 23.4375 30.8135 23.6844 30.374 24.124C29.9344 24.5635 29.6875 25.1596 29.6875 25.7812V30.4688C29.6875 31.0904 29.9344 31.6865 30.374 32.126C30.8135 32.5656 31.4096 32.8125 32.0312 32.8125C32.6529 32.8125 33.249 32.5656 33.6885 32.126C34.1281 31.6865 34.375 31.0904 34.375 30.4688V25.7812Z" fill="#333333"/>
<path d="M19.5312 0H25.7812C26.4029 0 26.999 0.24693 27.4385 0.686468C27.8781 1.12601 28.125 1.72215 28.125 2.34375V10.9375H38.2812C40.1461 10.9375 41.9345 11.6783 43.2531 12.9969C44.5717 14.3155 45.3125 16.1039 45.3125 17.9688V25H47.6562C48.2779 25 48.874 25.2469 49.3135 25.6865C49.7531 26.126 50 26.7221 50 27.3438C50 27.9654 49.7531 28.5615 49.3135 29.001C48.874 29.4406 48.2779 29.6875 47.6562 29.6875H45.3125V38.2812C45.3125 40.1461 44.5717 41.9345 43.2531 43.2531C41.9345 44.5717 40.1461 45.3125 38.2812 45.3125H11.7188C9.85395 45.3125 8.06552 44.5717 6.74691 43.2531C5.42829 41.9345 4.6875 40.1461 4.6875 38.2812V29.6875H2.34375C1.72215 29.6875 1.12601 29.4406 0.686468 29.001C0.24693 28.5615 0 27.9654 0 27.3438C0 26.7221 0.24693 26.126 0.686468 25.6865C1.12601 25.2469 1.72215 25 2.34375 25H4.6875V17.9688C4.6875 16.1039 5.42829 14.3155 6.74691 12.9969C8.06552 11.6783 9.85395 10.9375 11.7188 10.9375H23.4375V4.6875H19.5312C18.9096 4.6875 18.3135 4.44057 17.874 4.00103C17.4344 3.56149 17.1875 2.96535 17.1875 2.34375C17.1875 1.72215 17.4344 1.12601 17.874 0.686468C18.3135 0.24693 18.9096 0 19.5312 0ZM9.375 17.9688V38.2812C9.375 39.575 10.425 40.625 11.7188 40.625H38.2812C38.9029 40.625 39.499 40.3781 39.9385 39.9385C40.3781 39.499 40.625 38.9029 40.625 38.2812V17.9688C40.625 17.3471 40.3781 16.751 39.9385 16.3115C39.499 15.8719 38.9029 15.625 38.2812 15.625H11.7188C11.0971 15.625 10.501 15.8719 10.0615 16.3115C9.62193 16.751 9.375 17.3471 9.375 17.9688Z" fill="#333333"/>
</svg>
