<svg width="30" height="30" viewBox="0 0 30 30" fill="none" xmlns="http://www.w3.org/2000/svg">
<path d="M15.0001 26.25C12.9326 26.25 11.2501 24.5675 11.2501 22.5V16.545C9.8213 17.825 7.4688 17.7688 6.0988 16.4013C5.39579 15.698 5.00085 14.7444 5.00085 13.75C5.00085 12.7556 5.39579 11.802 6.0988 11.0988L10.5494 6.64813L12.7747 4.42282L13.8874 3.31017L14.4437 2.75384L14.7219 2.47567L14.861 2.33659C14.861 2.33659 14.9727 2.19751 15.0001 2.19751C15.0274 2.19751 15.1391 2.33659 15.1391 2.33659L15.2782 2.47567L15.5564 2.75384L16.1127 3.31017L17.2254 4.42282L19.4507 6.64813L23.9013 11.0988C24.6043 11.802 24.9992 12.7556 24.9992 13.75C24.9992 14.7444 24.6043 15.698 23.9013 16.4013C22.5338 17.77 20.1776 17.8263 18.7501 16.545V22.5C18.7501 24.5675 17.0676 26.25 15.0001 26.25ZM13.7501 10.5175V22.5C13.7644 22.8219 13.9024 23.1258 14.1353 23.3484C14.3681 23.5711 14.6779 23.6953 15.0001 23.6953C15.3222 23.6953 15.632 23.5711 15.8648 23.3484C16.0977 23.1258 16.2357 22.8219 16.2501 22.5V10.5175L20.3663 14.6338C20.6043 14.8613 20.9208 14.9883 21.25 14.9883C21.5793 14.9883 21.8958 14.8613 22.1338 14.6338C22.3681 14.3993 22.4998 14.0815 22.4998 13.75C22.4998 13.4186 22.3681 13.1007 22.1338 12.8663L15.0001 5.73251L7.8663 12.8663C7.63196 13.1007 7.50032 13.4186 7.50032 13.75C7.50032 14.0815 7.63196 14.3993 7.8663 14.6338C8.10426 14.8613 8.42081 14.9883 8.75005 14.9883C9.07929 14.9883 9.39584 14.8613 9.6338 14.6338L13.7501 10.5175Z" fill="#F6F6F6"/>
</svg>
